<!DOCTYPE svg PUBLIC "-//W3C//DTD SVG 20010904//EN" "http://www.w3.org/TR/2001/REC-SVG-20010904/DTD/svg10.dtd">
<svg version="1.0" xmlns="http://www.w3.org/2000/svg" width="250px" height="50px" viewBox="0 0 2500 500" preserveAspectRatio="xMidYMid meet">
<g id="layer101" fill="#5dcc4e" stroke="none">
 <path d="M2280 484 c-476 -67 -673 -75 -1090 -44 -374 28 -698 23 -980 -13 l-175 -22 -3 -199 -2 -199 67 7 c38 3 124 10 193 15 395 29 458 32 605 21 669 -45 1038 -33 1519 50 l68 12 -5 44 c-3 32 -15 56 -45 92 l-41 48 41 70 c22 38 42 84 45 102 l6 32 -54 -1 c-30 -1 -97 -8 -149 -15z"/>
 </g>
<g id="layer102" fill="#34fe19" stroke="none">
 <path d="M2285 484 c-143 -21 -436 -54 -481 -54 -22 0 -43 -3 -46 -6 -9 -8 -352 -9 -366 0 -7 4 -38 7 -69 8 -32 0 -92 3 -133 6 -41 3 -104 6 -140 7 -36 2 -67 4 -70 5 -14 8 -472 6 -476 -2 -3 -4 -22 -5 -42 -2 -31 5 -341 -26 -409 -41 -21 -5 -21 -8 -20 -201 l1 -196 61 5 c33 3 128 11 210 17 83 5 161 13 175 16 14 4 57 6 97 5 41 -2 74 2 78 8 9 15 162 14 171 0 4 -8 35 -10 91 -7 46 2 86 1 89 -4 3 -5 31 -9 62 -10 32 0 93 -2 137 -5 44 -2 220 -4 390 -5 328 -1 380 4 724 59 l163 26 -5 43 c-3 32 -15 56 -45 92 l-41 48 41 70 c22 38 41 83 42 99 1 29 0 30 -49 31 -27 1 -90 -4 -140 -12z"/>
 </g>
<g id="layer103" fill="#bceab6" stroke="none">
 <path d="M2210 439 c-398 -64 -609 -72 -1056 -38 -218 16 -328 20 -504 16 -211 -6 -567 -39 -581 -55 -3 -4 -3 -77 0 -162 l6 -155 25 2 c14 0 113 11 220 24 246 29 533 30 845 4 272 -23 588 -23 775 -1 164 20 472 66 482 72 13 9 9 41 -7 54 -9 7 -29 30 -46 52 l-31 38 47 80 c25 44 43 85 40 90 -8 13 -7 13 -215 -21z"/>
 </g>
<g id="layer104" fill="#fefffe" stroke="none">
 <path d="M2385 465 c-5 -2 -84 -16 -175 -29 -403 -62 -617 -69 -1080 -35 -337 25 -578 22 -855 -11 -99 -11 -186 -23 -192 -25 -10 -3 -13 -43 -13 -155 0 -125 3 -152 15 -156 9 -4 104 4 213 17 249 29 570 31 882 5 271 -22 550 -23 740 -2 233 26 484 67 499 81 12 12 9 20 -17 53 -17 21 -38 45 -47 52 -23 19 -19 35 26 111 45 77 46 110 4 94z"/>
 </g>

</svg>