<?xml version="1.0" encoding="UTF-8" standalone="no"?>
<svg
   xmlns:dc="http://purl.org/dc/elements/1.1/"
   xmlns:cc="http://creativecommons.org/ns#"
   xmlns:rdf="http://www.w3.org/1999/02/22-rdf-syntax-ns#"
   xmlns:svg="http://www.w3.org/2000/svg"
   xmlns="http://www.w3.org/2000/svg"
   xmlns:sodipodi="http://sodipodi.sourceforge.net/DTD/sodipodi-0.dtd"
   xmlns:inkscape="http://www.inkscape.org/namespaces/inkscape"
   version="1.0"
   width="246.52014"
   height="49.45924"
   viewBox="0 0 2465.2014 494.5924"
   preserveAspectRatio="none"
   id="svg4600"
   sodipodi:docname="banner_orange.svg"
   inkscape:version="0.92.3 (2405546, 2018-03-11)">
  <metadata
     id="metadata4606">
    <rdf:RDF>
      <cc:Work
         rdf:about="">
        <dc:format>image/svg+xml</dc:format>
        <dc:type
           rdf:resource="http://purl.org/dc/dcmitype/StillImage" />
      </cc:Work>
    </rdf:RDF>
  </metadata>
  <defs
     id="defs4604" />
  <sodipodi:namedview
     pagecolor="#ffffff"
     bordercolor="#666666"
     borderopacity="1"
     objecttolerance="10"
     gridtolerance="10"
     guidetolerance="10"
     inkscape:pageopacity="0"
     inkscape:pageshadow="2"
     inkscape:window-width="1920"
     inkscape:window-height="1046"
     id="namedview4602"
     showgrid="false"
     inkscape:zoom="6.272"
     inkscape:cx="128.19009"
     inkscape:cy="39.842449"
     inkscape:window-x="-11"
     inkscape:window-y="-11"
     inkscape:window-maximized="1"
     inkscape:current-layer="svg4600" />
  <g
     id="layer101"
     style="fill:#fe9d01;stroke:none"
     transform="rotate(1.4352159,1437.1971,-149.39658)">
    <path
       d="m 10,487 c 0,-8 22,-52 50,-98 27,-46 50,-88 50,-93 0,-4 -23,-35 -51,-69 C 22,183 10,160 12,141 15,116 18,114 173,89 660,7 857,-2 1360,35 c 415,30 536,28 870,-12 74,-9 158,-17 185,-17 l 50,-1 7,190 c 5,121 4,193 -2,199 -22,22 -363,56 -615,62 -202,5 -303,2 -528,-15 C 893,408 751,413 350,470 123,503 10,508 10,487 Z"
       id="path4588"
       inkscape:connector-curvature="0" />
  </g>
  <g
     id="layer104"
     transform="rotate(1.2497989,1556.1529,-243.52809)"
     style="fill:#ffffff;stroke:none">
    <path
       d="m 100,447 c 0,-3 18,-36 40,-75 22,-38 40,-75 40,-82 0,-7 -21,-37 -46,-67 -26,-30 -45,-56 -43,-58 6,-5 315,-52 474,-72 181,-22 492,-22 775,0 356,27 418,29 595,18 156,-10 400,-35 451,-46 21,-5 21,-1 26,138 3,78 5,143 4,144 0,0 -77,11 -171,23 -262,33 -557,37 -902,11 -334,-25 -504,-26 -719,-6 -146,14 -465,59 -506,71 -10,3 -18,3 -18,1 z"
       id="path4597"
       inkscape:connector-curvature="0" />
  </g>
</svg>
