<!DOCTYPE svg PUBLIC "-//W3C//DTD SVG 20010904//EN" "http://www.w3.org/TR/2001/REC-SVG-20010904/DTD/svg10.dtd">
<svg version="1.0" xmlns="http://www.w3.org/2000/svg" width="250px" height="50px" viewBox="0 0 2500 500" preserveAspectRatio="xMidYMid meet">
<g id="layer101" fill="#fe9d01" stroke="none">
 <path d="M10 487 c0 -8 22 -52 50 -98 27 -46 50 -88 50 -93 0 -4 -23 -35 -51 -69 -37 -44 -49 -67 -47 -86 3 -25 6 -27 161 -52 487 -82 684 -91 1187 -54 415 30 536 28 870 -12 74 -9 158 -17 185 -17 l50 -1 7 190 c5 121 4 193 -2 199 -22 22 -363 56 -615 62 -202 5 -303 2 -528 -15 -434 -33 -576 -28 -977 29 -227 33 -340 38 -340 17z"/>
 </g>
<g id="layer102" fill="#e4bb48" stroke="none">
 <path d="M90 454 c0 -3 18 -39 40 -79 22 -40 40 -79 40 -87 0 -8 -20 -38 -46 -68 -25 -29 -41 -56 -37 -60 9 -9 281 -51 488 -77 178 -21 480 -22 755 0 423 33 596 31 940 -12 80 -10 146 -18 146 -17 1 1 3 69 5 151 l4 150 -170 22 c-267 35 -559 40 -902 14 -333 -25 -523 -26 -739 -6 -146 14 -465 59 -506 71 -10 3 -18 2 -18 -2z"/>
 </g>
<g id="layer103" fill="#f7d385" stroke="none">
 <path d="M90 454 c0 -1 18 -33 40 -72 22 -38 40 -79 40 -91 0 -13 -20 -46 -45 -74 -25 -28 -41 -54 -37 -58 7 -7 368 -60 537 -80 145 -16 438 -13 685 7 283 24 665 24 850 0 74 -9 163 -20 198 -23 l63 -6 -3 149 -3 149 -50 7 c-324 47 -693 56 -1060 25 -370 -31 -647 -20 -1042 42 -95 15 -173 26 -173 25z"/>
 </g>
<g id="layer104" fill="#ffffff" stroke="none">
 <path d="M100 447 c0 -3 18 -36 40 -75 22 -38 40 -75 40 -82 0 -7 -21 -37 -46 -67 -26 -30 -45 -56 -43 -58 6 -5 315 -52 474 -72 181 -22 492 -22 775 0 356 27 418 29 595 18 156 -10 400 -35 451 -46 21 -5 21 -1 26 138 3 78 5 143 4 144 0 0 -77 11 -171 23 -262 33 -557 37 -902 11 -334 -25 -504 -26 -719 -6 -146 14 -465 59 -506 71 -10 3 -18 3 -18 1z"/>
 </g>

</svg>